<svg t="1743729584246" class="icon" viewBox="0 0 1024 1024" version="1.1" xmlns="http://www.w3.org/2000/svg" p-id="14004" width="200" height="200"><path d="M821.0944 598.9376a301.824 301.824 0 0 0-147.6096-325.3248 152.576 152.576 0 0 0 5.5808-38.912 153.6 153.6 0 1 0-307.2 0c0 13.5168 2.304 26.4192 5.5808 38.912a301.824 301.824 0 0 0-147.6096 325.3248 153.1904 153.1904 0 0 0 39.6288 301.3632 153.088 153.088 0 0 0 137.1648-85.76c36.5056 15.616 76.6464 24.32 118.8352 24.32s82.3296-8.704 118.8352-24.32a153.088 153.088 0 0 0 137.1648 85.76 153.6 153.6 0 0 0 153.6-153.6 153.1392 153.1392 0 0 0-113.9712-147.7632zM423.0656 234.752c0-56.4736 45.9264-102.4 102.4-102.4s102.4 45.9264 102.4 102.4c0 5.9904-0.768 11.8272-1.792 17.5104-3.1232 17.92-11.008 34.048-22.1696 47.4624-18.7904 22.6304-46.7968 37.376-78.4384 37.376s-59.648-14.7456-78.4384-37.376a101.2736 101.2736 0 0 1-22.1696-47.4624 99.0208 99.0208 0 0 1-1.792-17.5104z m-153.6 614.4c-56.4736 0-102.4-45.9264-102.4-102.4a102.4 102.4 0 0 1 77.6192-99.0208c7.9872-1.9968 16.1792-3.3792 24.7808-3.3792 11.8272 0 23.04 2.4064 33.5872 6.144 35.5328 12.4416 61.952 43.776 67.328 82.0736 0.6656 4.7104 1.4336 9.3696 1.4336 14.2336 0 15.6672-3.84 30.3616-10.1376 43.6736a102.2464 102.2464 0 0 1-92.2112 58.6752z m256-61.44c-37.2736 0-72.3456-8.704-104.192-23.3472 0.6656-5.8368 1.792-11.5712 1.792-17.6128a153.088 153.088 0 0 0-141.1584-152.3712 248.576 248.576 0 0 1-7.3216-57.6c0-91.9552 50.2784-171.6224 124.2112-215.3472a153.344 153.344 0 0 0 253.3376 0c73.984 43.6736 124.2112 123.392 124.2112 215.3472 0 19.9168-2.9184 39.0144-7.3216 57.6a153.088 153.088 0 0 0-141.1584 152.3712c0 6.0416 1.0752 11.776 1.792 17.6128a248.4224 248.4224 0 0 1-104.192 23.3472z m256 61.44c-40.7552 0-75.776-24.1152-92.2624-58.7264a101.0176 101.0176 0 0 1-10.1376-43.6736c0-4.864 0.768-9.5232 1.4336-14.2336a102.0928 102.0928 0 0 1 67.328-82.0736c10.5984-3.6864 21.76-6.144 33.5872-6.144 8.6016 0 16.7936 1.3824 24.7808 3.3792a102.4 102.4 0 0 1 77.6192 99.0208 102.4512 102.4512 0 0 1-102.3488 102.4512z" p-id="14005"></path></svg>