<svg t="1743730976615" class="icon" viewBox="0 0 1024 1024" version="1.1" xmlns="http://www.w3.org/2000/svg" p-id="17202" width="200" height="200"><path d="M342 163.6V95.8c0-13.8 11.2-25 25-25S392 82 392 95.8v9.2h130.8V96c0-13.8 11.2-25 25-25s25 11.2 25 25v67.8c0 13.8-11.2 25-25 25s-25-11.2-25-25v-8.8H392v8.6c0 13.8-11.2 25-25 25S342 177.4 342 163.6z m364.4 124c0-13.8-11.2-25-25-25H233.6c-13.8 0-25 11.2-25 25s11.2 25 25 25h447.8c13.8 0 25-11.2 25-25zM421.4 512c0 13.8-11.2 25-25 25h-153.2c-13.8 0-25-11.2-25-25v-127.8c0-13.8 11.2-25 25-25h153.2c13.8 0 25 11.2 25 25V512z m-50-102.8h-103.2v77.8h103.2v-77.8z m307.4-17c0-13.8-11.2-25-25-25h-170c-13.8 0-25 11.2-25 25s11.2 25 25 25h170c13.8 0 25-11.2 25-25z m-195 87c-13.8 0-25 11.2-25 25s11.2 25 25 25h92.6c13.8 0 25-11.2 25-25s-11.2-25-25-25h-92.6z m-62.4 134v127.8c0 13.8-11.2 25-25 25h-153.2c-13.8 0-25-11.2-25-25v-127.8c0-13.8 11.2-25 25-25h153.2c13.8 0 25 11.2 25 25z m-50 25h-103.2V716h103.2v-77.8z m-157.2 205c-24 0-43.6-19.6-43.6-43.6V198.6c0-24 19.6-43.6 43.6-43.6h68.6c13.8 0 25-11.2 25-25s-11.2-25-25-25h-68.6c-51.6 0-93.6 42-93.6 93.6v601.2c0 51.6 42 93.6 93.6 93.6H574c-11.8-15.6-21.8-32.4-29.6-50H214.2z m420-688.2h66.6c24 0 43.6 19.6 43.6 43.6v149c8.6-3.2 18-4.8 27.6-4.8 7.8 0 15.2 1.2 22.4 3.2V198.6c0-51.6-42-93.6-93.6-93.6h-66.6c-13.8 0-25 11.2-25 25s11 25 25 25z m343.2 585.8c0 113-91.8 205.2-204.8 205.8h-1c-54.6 0-106.2-21.4-145-60-39.2-39-60.6-90.8-60.6-145.8 0-31.6 7-61.8 20.6-90 0.4-0.8 0.8-1.4 1.2-2l146.8-240.2c8-13 22-20.8 37.2-20.8 15.4 0 29.2 7.8 37.2 20.8l146.8 240.2c0.4 0.6 0.8 1.4 1.2 2 13.6 28.2 20.4 58.6 20.4 90z m-50 0c0-23.4-5-46-15.2-67l-140.6-230.2-140.6 230.2c-10 21-15.2 43.6-15.2 67 0 41.6 16.4 80.8 46 110.2 29.4 29.4 68.4 45.4 109.8 45.4h0.8c85.6-0.2 155-70 155-155.6z" p-id="17203"></path></svg>