<svg t="1743728859675" class="icon" viewBox="0 0 1150 1024" version="1.1" xmlns="http://www.w3.org/2000/svg" p-id="5135" width="200" height="200"><path d="M1119.564255 964.081475h-158.307858V158.743603c-0.041759-40.678582-33.002213-73.646298-73.691688-73.700766h-68.023376c-40.673135 0.06173-73.631773 33.027631-73.664454 73.700766v805.337872h-70.111319V364.961589c-0.083518-35.131915-28.579404-63.558809-63.711319-63.558809h-81.36261c-35.108312 0.041759-63.558809 28.452312-63.644142 63.558809v599.119886H380.150922V505.155177c-0.034496-31.041362-25.176965-56.201986-56.218326-56.24556h-91.241305c-31.039546 0.043574-56.191092 25.204199-56.227404 56.24556v458.926298H65.819234V43.95756c0-7.790752-4.150468-14.993248-10.902695-18.887716-6.74678-3.896284-27.444652-3.896284-34.191433 0a21.816284 21.816284 0 0 0-10.90451 18.887716v954.542298A21.801759 21.801759 0 0 0 31.593305 1020.368794c0.415773 0 0.764369-0.21061 1.165617-0.230581H1081.500142c1.165617 0.145248 2.347574 0.230582 3.551319 0.230581h34.512794c15.545191 0 28.14366-12.600284 28.14366-28.143659s-12.600284-28.14366-28.14366-28.14366z m-784.117106-2.612652h-114.257702l0.105305-441.365788c0.007262-9.951319 7.451234-18.016227 16.630922-18.030751h81.064851c9.143376 0.112567 16.487489 8.192 16.45844 18.097929v441.29861z m289.897305-14.3941H517.519433V365.907518c0.007262-11.369305 8.277333-20.578043 18.481021-20.587121h70.804879c4.914837-0.01634 9.628142 2.147858 13.10139 6.009646 3.480511 3.859972 5.43773 9.105248 5.437731 14.577475v581.167205z m277.509447-2.846865h-98.592681V159.580596c0.014525-11.409248 9.26139-20.656113 20.672454-20.670639h57.24051c11.416511 0.012709 20.665191 9.26139 20.679717 20.670639v784.647262z" p-id="5136"></path></svg>