<svg t="1743729320225" class="icon" viewBox="0 0 1024 1024" version="1.1" xmlns="http://www.w3.org/2000/svg" p-id="9442" width="200" height="200"><path d="M747 505.1c17.2 0 31.1-13.9 31.1-31.1V323.6c0-49.6-40.4-90-90-90h-62.6c-14.5-49.2-60.1-85.2-113.9-85.2s-99.4 36-113.9 85.2h-62.9c-49.6 0-90 40.4-90 90v464.8c0 49.6 40.4 90 90 90H688c49.6 0 90-40.4 90-90V638.2c0-17.2-13.9-31.1-31.1-31.1S716 621 716 638.2v150.3c0 15.4-12.5 27.9-27.9 27.9H334.8c-15.4 0-27.9-12.5-27.9-27.9V323.6c0-15.4 12.5-27.9 27.9-27.9H688c15.4 0 27.9 12.5 27.9 27.9V474c0.1 17.2 14 31.1 31.1 31.1zM511.6 204.8c22 0 41.4 11.5 52.4 28.8H459.2c11-17.3 30.4-28.8 52.4-28.8z" p-id="9443"></path><path d="M625.5 408.3c-31.8-27.1-72.3-42-114.1-42-97.1 0-176.1 79-176.1 176.1 0 47 18.3 91.2 51.6 124.5 8 8 16.9 15.3 26.3 21.7 29.1 19.6 63 29.9 98.2 29.9 97.1 0 176.1-79 176.1-176.1 0-27.1-6-53.2-17.9-77.4-5.1-10.5-11.3-20.4-18.4-29.7-7.6-9.8-16.2-18.9-25.7-27z m-114.1 22.1c21.1 0 41.6 6 59.3 17L418.5 605.1c-12.4-18.4-19.1-40-19.1-62.7-0.1-61.8 50.2-112 112-112z m0 224.1c-15 0-29.7-3-43.3-8.7l145.1-150.4c6.8 14.7 10.3 30.5 10.3 47 0 61.8-50.3 112.1-112.1 112.1z" p-id="9444"></path></svg>