<svg t="1743727941625" class="icon" viewBox="0 0 1024 1024" version="1.1" xmlns="http://www.w3.org/2000/svg" p-id="1973" width="200" height="200"><path d="M221.5 918.5c-22 0-44.1-8.4-60.9-25.2l-25.1-25.1c-33.6-33.6-33.6-88.2 0-121.8L400 482c-17.9-43.9-24-92.7-17.2-139.8 8.3-57.8 34.5-110.3 75.9-151.7 76.4-76.4 190.6-99.6 290.7-59l49 19.8L650.8 299l79.2 79.2 147.6-147.6 19.8 49c40.6 100.2 17.4 214.3-59 290.7-41.4 41.4-93.9 67.7-151.7 75.9-47.2 6.7-95.9 0.6-139.8-17.2L282.4 893.3c-16.8 16.8-38.8 25.2-60.9 25.2z m427-736.7c-51.6 0-102.3 20.2-140.3 58.2-62 62-76.1 155.7-35.2 233.1l12.1 22.8-300 300c-6.3 6.3-6.3 16.5 0 22.8l25.1 25.1c6.3 6.3 16.5 6.3 22.8 0l300-300 22.8 12.1c77.4 41 171.1 26.8 233.1-35.2 42.8-42.8 63-101.6 57.3-159.8L773 434.1c-23.7 23.7-62.2 23.7-85.9 0l-92.2-92.2c-23.7-23.7-23.7-62.2 0-85.9l73.2-73.2c-6.6-0.7-13.1-1-19.6-1z" p-id="1974"></path></svg>