<svg t="1743728718464" class="icon" viewBox="0 0 1024 1024" version="1.1" xmlns="http://www.w3.org/2000/svg" p-id="2127" width="200" height="200"><path d="M43.049378 318.944062l-0.217999 0.333 453.811666 262.014229a29.879912 29.879912 0 0 0 14.946956 4.019989c5.392984 0 10.686969-1.451996 15.263955-4.183988l450.338677-259.994236c14.251958-8.253976 19.132944-26.569922 10.873968-40.82788-2.681992-4.634986-6.561981-8.462975-11.163968-11.039967L528.287952 9.121973a29.849912 29.849912 0 0 0-14.945956-4.025988 29.859912 29.859912 0 0 0-16.493951 4.944985L46.872367 269.828207c-14.257958 8.189976-19.193944 26.457922-11.001967 40.72188a29.784912 29.784912 0 0 0 7.179978 8.392975zM513.234996 69.459796l389.318856 225.769336L511.616001 520.938469l-390.178853-225.279338L513.235996 69.459796z m463.668637 419.145768l-84.438751-48.964856-59.686825 34.459898 69.780795 40.469881-390.942851 225.706337-390.178853-225.272338 69.929794-40.373881-59.654824-34.442899-84.839751 48.985856c-14.256958 8.189976-19.194944 26.456922-11.000967 40.71588a29.803912 29.803912 0 0 0 7.328978 8.517975l-0.189999 0.317999 453.636666 261.909231a29.875912 29.875912 0 0 0 30.209911-0.16l450.334677-259.997236c14.253958-8.257976 19.134944-26.571922 10.875968-40.82588-2.688992-4.636986-6.563981-8.466975-11.165968-11.044967z m0 219.343355l-84.089752-48.766857-59.682825 34.457899 69.427796 40.269882-390.942851 225.710336-390.178853-225.273338 69.582796-40.179881-59.653825-34.436899-84.492752 48.785856c-14.257958 8.188976-19.193944 26.457922-11.001967 40.716881a29.742913 29.742913 0 0 0 7.233978 8.436975l-0.206999 0.328999 453.745666 261.97323a29.895912 29.895912 0 0 0 14.946956 4.024988 29.875912 29.875912 0 0 0 15.263955-4.178988l450.338677-259.999235c14.251958-8.259976 19.132944-26.576922 10.873968-40.82488-2.681992-4.636986-6.557981-8.467975-11.164968-11.044968z" p-id="2128"></path></svg>